# xmcd CD database file
#
# Track frame offsets:
#	150
#	14465
#	32220
#	54285
#	67232
#	82232
#	102240
#	114137
#	139490
#	160920
#
# Disc length: 2395 seconds
#
# Revision: 0
# Processed by: cddbd v1.5.1PL0 Copyright (c) Steve Scherf et al.
# Submitted via: CDex 1.51
#
DISCID=8909590a
DTITLE=Mono Gramme - Under
DYEAR=1995
DGENRE=Techno
TTITLE0=Nairan 1994
TTITLE1=Hito-Hito
TTITLE2=Languid
TTITLE3=Mori
TTITLE4=Faze
TTITLE5=Demoshika
TTITLE6=Od-Metal
TTITLE7=Route 24
TTITLE8=Sakasama
TTITLE9=Far
EXTD=YEAR: 1995
EXTT0=
EXTT1=
EXTT2=
EXTT3=
EXTT4=
EXTT5=
EXTT6=
EXTT7=
EXTT8=
EXTT9=
PLAYORDER=
